<svg xmlns="http://www.w3.org/2000/svg" viewBox="0 0 96 96" role="img" aria-labelledby="da-holidays-favicon-title da-holidays-favicon-desc">
  <title id="da-holidays-favicon-title">Dudu e Alê de Férias</title>
  <desc id="da-holidays-favicon-desc">An ascending airplane inside a broad rounded heart.</desc>
  <style>
    .heart { fill: #FFF8D8; stroke: #9A7617; }
    .plane { fill: none; stroke: #B84C2E; }
    .heart,.plane { stroke-width: 4; stroke-linejoin: round; }
    .plane { stroke-linecap: round; }
    @media (prefers-color-scheme: dark) { .heart { fill: #514628; stroke: #F3D877; } .plane { stroke: #FFAD8D; } }
  </style>
  <path class="heart" d="M48 18C42.5 9.5 35.5 6 28 6 13.6 6 2 17.6 2 32c0 17.2 7 27 19 36.6C28.8 75.2 39 82.6 48 90c9-7.4 19.2-14.8 27-21.4C87 59 94 49.2 94 32 94 17.6 82.4 6 68 6c-7.5 0-14.5 3.5-20 12Z"/>
  <path class="plane" aria-hidden="true" transform="translate(25.2 25.2) scale(1.9) rotate(-35 12 12)" d="M16 10h4a2 2 0 0 1 0 4h-4l-4 7H9l2-7H6l-2 2H2l1-4-1-4h2l2 2h5L9 3h3l4 7Z"/>
</svg>